HIERARCHY
ROOT Hips
{
	OFFSET 0.000000 0.000000 0.000000 
	CHANNELS 6 Xposition Yposition Zposition Zrotation Yrotation Xrotation
	JOINT LHipJoint
	{
		OFFSET 0.000000 0.000000 0.000000 
		CHANNELS 3 Zrotation Yrotation Xrotation
		JOINT LeftUpLeg
		{
			OFFSET 0.103546 -0.112676 0.039048 
			CHANNELS 3 Zrotation Yrotation Xrotation
			JOINT LeftLeg
			{
				OFFSET 0.162325 -0.445985 0.000000 
				CHANNELS 3 Zrotation Yrotation Xrotation
				JOINT LeftFoot
				{
					OFFSET 0.155773 -0.427981 0.000000 
					CHANNELS 3 Zrotation Yrotation Xrotation
					JOINT LeftToeBase
					{
						OFFSET 0.012315 -0.033835 0.134113 
						CHANNELS 3 Zrotation Yrotation Xrotation
						End Site
						{
							OFFSET 0.000000 -0.000000 0.069531 
						}
					}
				}
			}
		}
	}
	JOINT RHipJoint
	{
		OFFSET 0.000000 0.000000 0.000000 
		CHANNELS 3 Zrotation Yrotation Xrotation
		JOINT RightUpLeg
		{
			OFFSET -0.100669 -0.112676 0.039047 
			CHANNELS 3 Zrotation Yrotation Xrotation
			JOINT RightLeg
			{
				OFFSET -0.162189 -0.445611 0.000000 
				CHANNELS 3 Zrotation Yrotation Xrotation
				JOINT RightFoot
				{
					OFFSET -0.154237 -0.423765 0.000000 
					CHANNELS 3 Zrotation Yrotation Xrotation
					JOINT RightToeBase
					{
						OFFSET -0.014390 -0.039536 0.133355 
						CHANNELS 3 Zrotation Yrotation Xrotation
						End Site
						{
							OFFSET -0.000000 -0.000000 0.069731 
						}
					}
				}
			}
		}
	}
	JOINT LowerBack
	{
		OFFSET 0.000000 0.000000 0.000000 
		CHANNELS 3 Zrotation Yrotation Xrotation
		JOINT Spine
		{
			OFFSET 0.001226 0.128406 -0.008820 
			CHANNELS 3 Zrotation Yrotation Xrotation
			JOINT Spine1
			{
				OFFSET 0.000638 0.129022 -0.003701 
				CHANNELS 3 Zrotation Yrotation Xrotation
				JOINT Neck
				{
					OFFSET 0.000000 0.000000 0.000000 
					CHANNELS 3 Zrotation Yrotation Xrotation
					JOINT Neck1
					{
						OFFSET 0.000446 0.097944 0.009355 
						CHANNELS 3 Zrotation Yrotation Xrotation
						JOINT Head
						{
							OFFSET 0.002143 0.097526 -0.006254 
							CHANNELS 3 Zrotation Yrotation Xrotation
							End Site
							{
								OFFSET 0.000816 0.101600 -0.003291 
							}
						}
					}
				}
				JOINT LeftShoulder
				{
					OFFSET 0.000000 0.000000 0.000000 
					CHANNELS 3 Zrotation Yrotation Xrotation
					JOINT LeftArm
					{
						OFFSET 0.221378 0.056522 -0.010852 
						CHANNELS 3 Zrotation Yrotation Xrotation
						JOINT LeftForeArm
						{
							OFFSET 0.304071 -0.000000 -0.000000 
							CHANNELS 3 Zrotation Yrotation Xrotation
							JOINT LeftHand
							{
								OFFSET 0.209721 -0.000000 0.000000 
								CHANNELS 3 Zrotation Yrotation Xrotation
								JOINT LeftFingerBase
								{
									OFFSET 0.000000 0.000000 0.000000 
									CHANNELS 3 Zrotation Yrotation Xrotation
									JOINT LeftHandIndex1
									{
										OFFSET 0.041323 -0.000000 0.000000 
										CHANNELS 3 Zrotation Yrotation Xrotation
										End Site
										{
											OFFSET 0.033316 -0.000000 0.000000 
										}
									}
								}
								JOINT LThumb
								{
									OFFSET 0.000000 0.000000 0.000000 
									CHANNELS 3 Zrotation Yrotation Xrotation
									End Site
									{
										OFFSET 0.033825 -0.000000 0.033825 
									}
								}
							}
						}
					}
				}
				JOINT RightShoulder
				{
					OFFSET 0.000000 0.000000 0.000000 
					CHANNELS 3 Zrotation Yrotation Xrotation
					JOINT RightArm
					{
						OFFSET -0.218626 0.047496 -0.020385 
						CHANNELS 3 Zrotation Yrotation Xrotation
						JOINT RightForeArm
						{
							OFFSET -0.314156 -0.000000 0.000000 
							CHANNELS 3 Zrotation Yrotation Xrotation
							JOINT RightHand
							{
								OFFSET -0.210269 -0.000000 0.000000 
								CHANNELS 3 Zrotation Yrotation Xrotation
								JOINT RightFingerBase
								{
									OFFSET 0.000000 0.000000 0.000000 
									CHANNELS 3 Zrotation Yrotation Xrotation
									JOINT RightHandIndex1
									{
										OFFSET -0.045651 -0.000000 0.000000 
										CHANNELS 3 Zrotation Yrotation Xrotation
										End Site
										{
											OFFSET -0.036804 -0.000000 0.000000 
										}
									}
								}
								JOINT RThumb
								{
									OFFSET 0.000000 0.000000 0.000000 
									CHANNELS 3 Zrotation Yrotation Xrotation
									End Site
									{
										OFFSET -0.037366 -0.000000 0.037366 
									}
								}
							}
						}
					}
				}
			}
		}
	}
}
MOTION
Frames: 10
Frame Time: 0.033333
0.000000 1.044050 0.000000 0.000000 0.000000 0.000000 0.000000 0.000000 0.000000 -21.000000 0.000000 0.000000 0.000000 0.000000 0.000000 0.000000 0.000000 0.000000 0.000000 0.000000 0.000000 0.000000 0.000000 0.000000 21.000000 0.000000 0.000000 0.000000 0.000000 0.000000 0.000000 0.000000 0.000000 0.000000 0.000000 0.000000 0.000000 0.000000 0.000000 0.000000 0.000000 0.000000 0.000000 0.000000 0.000000 0.000000 0.000000 -16.000000 0.000000 0.000000 21.000000 0.000000 0.000000 11.000000 0.000000 0.000000 0.000000 -8.000000 0.000000 0.000000 0.000000 0.000000 0.000000 0.000000 0.000000 0.000000 0.000000 0.000000 0.000000 0.000000 0.000000 0.000000 0.000000 0.000000 0.000000 0.000000 0.000000 0.000000 8.000000 0.000000 0.000000 0.000000 0.000000 0.000000 0.000000 0.000000 0.000000 0.000000 0.000000 0.000000 0.000000 0.000000 0.000000 0.000000 0.000000 0.000000 
-0.001519 1.041850 0.000000 -2.430100 -10.191400 -2.652900 0.000000 0.000000 0.000000 -19.497700 -9.509100 -26.102699 1.506900 7.753200 21.966801 0.215300 8.493400 -15.590600 0.347800 -3.789100 -10.484100 0.000000 0.000000 0.000000 28.005199 -4.158500 17.868601 -0.386900 -3.994300 11.060500 -0.612200 6.540100 -14.001400 -0.000400 -0.135600 0.372600 5.743700 1.823700 7.193600 1.449700 2.774200 3.818900 -1.908000 1.451500 0.127600 1.318800 4.129900 -12.917800 -6.090700 5.585200 0.706100 -1.869400 2.558900 2.734400 0.000000 0.000000 0.000000 -97.168602 11.065700 -11.789100 10.212700 -17.071699 -1.536800 -0.000000 0.000000 -11.113700 23.414499 20.074301 8.454300 -7.125000 0.000000 -0.000000 -5.115900 51.623199 -0.836300 0.000000 0.000000 0.000000 79.402298 21.128000 39.103600 -26.805300 37.992901 -9.379000 0.000000 -0.000000 -16.082701 -27.044201 16.653700 -8.323400 7.125000 -0.000000 -0.000000 0.516400 -11.415400 0.404000 
-0.004600 1.035269 0.000000 -2.442900 -10.271300 -2.360000 0.000000 0.000000 0.000000 -20.193800 -9.628100 -26.183800 2.136300 9.144400 26.248100 0.007400 9.177100 -13.208000 0.350500 -3.803700 -10.525200 0.000000 0.000000 0.000000 27.558500 -4.679500 19.292400 -0.547200 -4.739000 13.165600 -0.572500 6.740700 -13.579400 -0.226800 3.065100 -8.460000 4.978900 1.793400 5.944500 1.657800 2.612400 3.736900 -1.213700 1.368700 0.673900 0.871200 4.238400 -12.663900 -4.988200 5.683200 -0.503800 -1.427800 2.669600 2.214700 0.000000 0.000000 0.000000 -97.697998 10.669500 -11.856200 10.223900 -17.089001 -1.540100 -0.000000 0.000000 -11.135000 22.939301 20.556499 8.452700 -7.125000 0.000000 -0.000000 -5.733300 52.047501 -0.997500 0.000000 0.000000 0.000000 79.647598 20.817301 39.763199 -25.581100 36.792099 -8.635600 0.000000 -0.000000 -16.542500 -27.044300 16.287600 -8.147900 7.125000 -0.000000 -0.000000 0.480500 -11.817800 0.371900 
-0.007713 1.032656 0.000000 -2.620400 -10.063700 -2.456800 0.000000 0.000000 0.000000 -20.156500 -10.073100 -26.309799 2.976000 10.656200 31.128799 -0.151400 10.681500 -12.598000 0.003300 0.372100 1.022500 0.000000 0.000000 0.000000 27.396400 -4.793000 19.441299 -1.029100 -6.452700 18.103800 -0.367300 6.363100 -11.005900 -0.853600 5.892400 -16.472500 4.960800 1.733100 5.773100 1.368500 2.535300 3.410100 -1.499200 1.323800 0.438800 0.795300 4.129900 -12.577600 -3.670600 5.462800 -1.525900 -1.011100 2.615500 1.795600 -0.000000 -0.000000 0.000000 -96.791199 9.786500 -12.155200 9.666700 -16.216600 -1.380400 -0.000000 0.000000 -8.891700 22.824200 20.410200 8.349700 -7.125000 0.000000 -0.000000 -5.805300 51.873100 -0.985200 -0.000000 -0.000000 0.000000 81.523300 19.271799 39.267799 -23.473499 34.602501 -7.405400 0.000000 -0.000000 -15.293900 -27.503500 17.070801 -8.689700 7.125000 -0.000000 -0.000000 0.256000 -10.883500 0.203100 
-0.011519 1.033225 0.000000 -0.623100 -9.282300 -2.747400 0.000000 0.000000 0.000000 -23.035400 -9.323900 -25.402300 3.467600 11.416000 33.696098 0.024100 8.213500 -12.180200 0.084400 1.874100 5.157800 0.000000 0.000000 0.000000 25.004299 -3.631500 15.398400 -2.655600 -10.115400 29.351299 -0.049500 6.342300 -5.643100 -1.712300 8.239300 -23.443300 2.582900 1.661300 5.653400 0.727900 2.331500 3.113100 -0.824700 1.188700 0.109200 -0.684900 3.798800 -12.404400 -1.587600 5.154600 -2.438900 -0.134200 2.535200 1.341700 0.000000 -0.000000 0.000000 -95.909599 8.274800 -10.814400 9.352100 -15.719800 -1.293900 -0.000000 0.000000 -8.074200 22.881599 21.175900 8.668200 -7.125000 0.000000 -0.000000 -5.981300 52.687901 -1.134900 0.000000 -0.000000 0.000000 83.092300 17.212099 38.027302 -21.118401 31.966299 -6.112500 0.000000 -0.000000 -14.051000 -27.544100 17.290199 -8.811200 7.125000 -0.000000 -0.000000 0.252400 -10.635300 0.201500 
-0.013219 1.037869 0.000000 -0.831200 -9.715200 -2.762100 0.000000 0.000000 0.000000 -23.465700 -8.535700 -23.665701 3.788500 11.873500 35.285900 0.156400 7.345600 -13.427400 0.190600 2.811400 7.754100 0.000000 0.000000 0.000000 24.584499 -1.009300 10.841600 -4.811400 -13.168200 40.001400 -0.007800 3.684000 5.596200 -2.322200 9.507300 -27.395500 2.934800 1.660400 5.505400 0.562100 2.345900 2.901600 -1.191300 1.198100 -0.003800 -1.053400 3.779400 -11.659800 -1.067700 5.142400 -3.710500 0.052200 2.558200 0.775700 -0.000000 -0.000000 0.000000 -95.123497 6.613700 -8.691700 9.527500 -15.997100 -1.341800 -0.000000 0.000000 -8.218800 22.189600 20.763300 8.227800 -7.125000 0.000000 -0.000000 -6.550400 52.130299 -1.153900 -0.000000 -0.000000 0.000000 84.628700 15.525600 37.919701 -18.356800 28.611601 -4.718900 0.000000 -0.000000 -13.688800 -27.762199 17.073500 -8.785500 7.125000 -0.000000 -0.000000 0.086300 -10.838500 0.068500 
-0.014275 1.042238 0.000000 0.424300 -9.856800 -3.120100 0.000000 0.000000 0.000000 -25.633301 -7.631200 -20.391500 3.576300 11.574100 34.241600 0.367000 6.411000 -15.572400 0.197200 2.859400 7.887500 0.000000 0.000000 0.000000 22.823099 2.279000 5.535500 -7.701000 -15.894900 51.478401 -0.648600 -1.831900 14.698000 -3.177500 10.976900 -32.202099 1.719100 1.542700 5.863600 0.228200 2.137500 2.874400 -0.855800 1.080900 -0.273600 -0.701900 3.888300 -12.135700 -1.837100 5.246900 -3.822100 -0.229400 2.589700 0.852100 0.000000 0.000000 0.000000 -94.824898 4.595600 -4.018800 10.446400 -17.434799 -1.606100 -0.000000 0.000000 -11.139600 23.049500 20.238001 8.373100 -7.125000 0.000000 -0.000000 -5.528700 51.731602 -0.918800 0.000000 0.000000 0.000000 85.532997 14.000600 37.332901 -15.610400 24.989500 -3.479700 0.000000 -0.000000 -11.112500 -25.149000 17.148300 -7.881000 7.125000 -0.000000 -0.000000 1.813900 -11.164100 1.429100 
-0.016269 1.046244 0.000000 1.957100 -9.229300 -3.554100 0.000000 0.000000 0.000000 -28.014099 -6.747000 -17.155701 3.277700 11.131600 32.724899 0.484800 5.656900 -16.438801 0.185400 2.773100 7.647800 0.000000 0.000000 0.000000 20.892700 4.656100 -0.395800 -10.681300 -17.775600 61.742298 -0.362100 -9.004800 11.610400 -2.330900 9.523700 -27.447500 0.078900 1.228900 6.070400 -0.160000 1.631800 3.109400 -0.307900 0.815500 -0.196100 -0.669000 4.213800 -12.361900 -2.299600 5.680300 -3.752000 -0.352800 2.793900 0.931000 -0.000000 0.000000 0.000000 -93.975304 2.576000 3.179000 11.922100 -19.687700 -2.076000 -0.000000 0.000000 -15.732400 23.942400 18.046101 7.831900 -7.125000 0.000000 -0.000000 -4.072900 49.556801 -0.458300 -0.000000 0.000000 0.000000 86.343201 12.647800 35.292702 -13.770400 22.405500 -2.740000 0.000000 -0.000000 -7.715600 -21.410400 16.237000 -6.256800 7.125000 -0.000000 -0.000000 4.229100 -12.644700 3.209800 
-0.017475 1.052469 0.000000 2.086300 -8.702400 -3.918200 0.000000 0.000000 0.000000 -28.944300 -5.496700 -13.685400 2.993600 10.684700 31.223900 0.613400 5.120000 -17.542500 0.065000 1.645200 4.526000 0.000000 0.000000 0.000000 20.338200 6.661300 -5.554900 -12.680200 -18.663601 68.129204 0.346500 -12.980800 3.590700 -1.104000 6.676100 -18.759300 -0.107100 1.027200 6.197800 -0.052900 1.354200 3.277000 -0.077400 0.673800 -0.102900 -0.466400 4.190200 -11.762300 -3.133800 5.597200 -4.597500 -0.671500 2.750000 0.592400 0.000000 0.000000 0.000000 -93.413399 0.781200 9.127900 13.959300 -22.676500 -2.812400 -0.000000 0.000000 -17.323500 23.018101 19.391600 8.029100 -7.125000 0.000000 -0.000000 -5.322300 50.833099 -0.766800 0.000000 0.000000 0.000000 86.814301 10.298300 32.185799 -12.457000 20.486401 -2.259700 0.000000 -0.000000 -5.114400 -20.244301 16.726999 -6.059100 7.125000 -0.000000 -0.000000 5.034000 -12.270500 3.864500 
-0.018263 1.056731 0.000000 2.176300 -6.767500 -4.096800 0.000000 0.000000 0.000000 -29.900801 -5.144500 -9.884100 2.669000 10.139000 29.427900 0.712600 4.699200 -18.336599 0.014000 0.764100 2.100000 0.000000 0.000000 0.000000 19.607100 8.074100 -10.485300 -13.706100 -19.022499 71.304901 0.743800 -15.137000 -4.039000 -0.469100 4.392700 -12.184200 -0.293600 0.301500 5.889300 0.146100 0.382300 3.363000 0.293000 0.183900 0.154200 -0.862800 4.248800 -11.413600 -2.924200 5.726300 -4.338400 -0.540700 2.822800 0.598400 -0.000000 0.000000 0.000000 -92.781898 -0.484000 15.520200 16.711399 -26.475700 -3.957800 -0.000000 0.000000 -20.937500 23.907301 21.334000 9.161300 -7.125000 0.000000 -0.000000 -4.984900 53.044998 -0.988600 -0.000000 0.000000 0.000000 86.764999 7.156300 30.586500 -11.838700 19.562300 -2.048000 0.000000 -0.000000 -5.233200 -21.494600 16.597500 -6.418100 7.125000 -0.000000 -0.000000 4.194500 -12.253200 3.217600 
